<svg class="img-5" xmlns="http://www.w3.org/2000/svg" width="20" height="20" viewBox="0 0 20 20" fill="none">
                    <path fill-rule="evenodd" clip-rule="evenodd" d="M13.7615 17.9166H6.80495C4.24965 17.9166 2.28931 16.9936 2.84614 13.2789L3.4945 8.24457C3.83775 6.39102 5.02005 5.68164 6.05743 5.68164H14.5395C15.5921 5.68164 16.7058 6.44442 17.1024 8.24457L17.7508 13.2789C18.2237 16.5741 16.3168 17.9166 13.7615 17.9166Z" stroke="#DDDDDD" stroke-width="1.5" stroke-linecap="round" stroke-linejoin="round"></path>
                    <path d="M13.8758 5.49877C13.8758 3.51038 12.2639 1.89847 10.2755 1.89847V1.89847C9.31797 1.89441 8.3983 2.27194 7.71981 2.94757C7.04131 3.62319 6.6599 4.54127 6.65991 5.49877H6.65991" stroke="#DDDDDD" stroke-width="1.5" stroke-linecap="round" stroke-linejoin="round"></path>
                    <path d="M12.7469 9.25151H12.7088" stroke="#DDDDDD" stroke-width="1.5" stroke-linecap="round" stroke-linejoin="round"></path>
                    <path d="M7.88801 9.25151H7.84987" stroke="#DDDDDD" stroke-width="1.5" stroke-linecap="round" stroke-linejoin="round"></path>
                  </svg>