            
              <svg className="edit" id="edit" xmlns="http://www.w3.org/2000/svg" width="19" height="19" viewBox="0 0 19 19" fill="none">
                <g clip-path="url(#clip0_153_34714)">
                <path d="M6.33228 17.4163V18.0101H6.57822L6.75212 17.8362L6.33228 17.4163ZM17.4156 6.33301L17.8354 6.75285C18.0673 6.52098 18.0673 6.14503 17.8354 5.91316L17.4156 6.33301ZM1.58301 12.6663L1.16315 12.2465L0.989258 12.4204V12.6663H1.58301ZM12.6656 1.58301L13.0854 1.16316C12.9741 1.05181 12.8231 0.989258 12.6656 0.989258C12.5081 0.989258 12.3571 1.05182 12.2457 1.16318L12.6656 1.58301ZM1.58301 17.4163H0.989258V18.0101H1.58301V17.4163ZM6.75212 17.8362L17.8354 6.75285L16.9957 5.91316L5.91244 16.9965L6.75212 17.8362ZM2.00287 13.0862L13.0854 2.00284L12.2457 1.16318L1.16315 12.2465L2.00287 13.0862ZM12.2457 2.00285L16.9957 6.75285L17.8354 5.91316L13.0854 1.16316L12.2457 2.00285ZM6.33228 16.8226H1.58301V18.0101H6.33228V16.8226ZM2.17676 17.4163V12.6663H0.989258V17.4163H2.17676Z" fill="#383838"></path>
                <path d="M9.5 4.75L14.25 9.5" stroke="#383838" stroke-width="0.890625" stroke-linejoin="round"></path>
                <path d="M10.292 17.417H17.417" stroke="#383838" stroke-width="0.890625" stroke-linejoin="round"></path>
                </g>
                <defs>
                <clipPath id="clip0_153_34714">
                <rect width="19" height="19" fill="white"></rect>
                </clipPath>
                </defs>
                </svg>