<svg xmlns="http://www.w3.org/2000/svg" width="16" height="16" viewBox="0 0 16 16" fill="none">
                  <path d="M6.09578 13.8547V11.8102C6.09577 11.2921 6.51707 10.8711 7.03892 10.8679H8.95503C9.47921 10.8679 9.90414 11.2898 9.90414 11.8102V13.8488C9.90413 14.2982 10.2693 14.6634 10.7219 14.6666H12.0292C12.6397 14.6682 13.2258 14.4285 13.6581 14.0005C14.0903 13.5724 14.3333 12.9912 14.3333 12.385V6.57723C14.3333 6.08759 14.1147 5.62314 13.7364 5.309L9.29528 1.78285C8.51897 1.16608 7.41021 1.18601 6.65689 1.83026L2.3113 5.309C1.91512 5.61388 1.67833 6.07971 1.66663 6.57723V12.3791C1.66663 13.6425 2.69821 14.6666 3.97074 14.6666H5.24815C5.46607 14.6682 5.67562 14.5834 5.83027 14.431C5.98493 14.2785 6.07191 14.0711 6.0719 13.8547H6.09578Z" fill="#434343"></path>
                  </svg>