<svg class="iconly-bulk" xmlns="http://www.w3.org/2000/svg" width="20" height="20" viewBox="0 0 20 20" fill="none">
  <path d="M16.4746 9.70445C15.8658 8.99358 15.5892 8.37755 15.5892 7.33097V6.97511C15.5892 5.61129 15.2753 4.73256 14.5928 3.85383C13.541 2.48917 11.7703 1.66667 10.0368 1.66667H9.9631C8.26609 1.66667 6.55085 2.4514 5.48079 3.76067C4.76107 4.65702 4.41073 5.57352 4.41073 6.97511V7.33097C4.41073 8.37755 4.15233 8.99358 3.52537 9.70445C3.06405 10.2282 2.91663 10.9013 2.91663 11.6298C2.91663 12.3591 3.15598 13.0498 3.63635 13.6113C4.26331 14.2844 5.14867 14.7141 6.05309 14.7888C7.3625 14.9382 8.67191 14.9944 10.0004 14.9944C11.328 14.9944 12.6374 14.9004 13.9477 14.7888C14.8512 14.7141 15.7366 14.2844 16.3636 13.6113C16.8431 13.0498 17.0833 12.3591 17.0833 11.6298C17.0833 10.9013 16.9359 10.2282 16.4746 9.70445Z" fill="#DDDDDD"></path>
  <path opacity="0.4" d="M11.6738 16.0236C11.2572 15.9347 8.71876 15.9347 8.30217 16.0236C7.94603 16.1059 7.56091 16.2972 7.56091 16.7169C7.58162 17.1172 7.816 17.4706 8.14067 17.6946L8.13984 17.6955C8.55974 18.0228 9.05253 18.2309 9.56851 18.3056C9.84348 18.3434 10.1234 18.3417 10.4083 18.3056C10.9235 18.2309 11.4163 18.0228 11.8362 17.6955L11.8353 17.6946C12.16 17.4706 12.3944 17.1172 12.4151 16.7169C12.4151 16.2972 12.03 16.1059 11.6738 16.0236Z" fill="#DDDDDD"></path>
</svg>