<svg xmlns="http://www.w3.org/2000/svg" width="56" height="56" viewBox="0 0 56 56" fill="none">
                  <path fill-rule="evenodd" clip-rule="evenodd" d="M28.0493 16C30.7564 16 33.1731 17.7195 34.0599 20.2803C34.2231 20.7494 33.9735 21.2618 33.5031 21.425C33.0339 21.5894 32.5215 21.3386 32.3583 20.8682C31.7236 19.0335 29.9896 17.7999 28.0457 17.7999H28.0289C25.5186 17.7999 23.4738 19.8327 23.463 22.3406L23.4622 23.9509L32.6203 23.9518C35.625 23.9518 38.0705 26.3973 38.0705 29.4032V34.5486C38.0705 37.5545 35.625 40 32.6203 40H23.4502C20.4443 40 18 37.5545 18 34.5486V29.4032C18 27.0232 19.5324 24.9945 21.6625 24.2528L21.6631 22.361C21.6787 18.8355 24.5298 16 28.0253 16H28.0493ZM32.6203 25.7517H23.4502C21.4367 25.7517 19.7999 27.3896 19.7999 29.4032V34.5486C19.7999 36.5621 21.4367 38.2001 23.4502 38.2001H32.6203C34.6326 38.2001 36.2706 36.5621 36.2706 34.5486V29.4032C36.2706 27.3896 34.6326 25.7517 32.6203 25.7517ZM28.0356 29.7425C28.5324 29.7425 28.9356 30.1457 28.9356 30.6425V33.3088C28.9356 33.8056 28.5324 34.2088 28.0356 34.2088C27.5388 34.2088 27.1356 33.8056 27.1356 33.3088V30.6425C27.1356 30.1457 27.5388 29.7425 28.0356 29.7425Z" fill="#383838"></path>
                </svg>