<svg xmlns="http://www.w3.org/2000/svg" width="56" height="56" viewBox="0 0 56 56" fill="none">
                <path d="M34 26.2143V28M34 26.2143C32.8432 26.2143 31.8241 25.6461 31.2263 24.7833M34 26.2143C35.1568 26.2143 36.1759 25.6461 36.7737 24.7833M31.2263 24.7833L29.5 26M31.2263 24.7833C30.8728 24.273 30.6667 23.6597 30.6667 23C30.6667 22.3403 30.8727 21.7271 31.2262 21.2169M36.7737 24.7833L38.5 26M36.7737 24.7833C37.1272 24.273 37.3333 23.6597 37.3333 23C37.3333 22.3403 37.1273 21.7271 36.7738 21.2169M34 19.7857C35.1569 19.7857 36.1761 20.354 36.7738 21.2169M34 19.7857C32.8431 19.7857 31.8239 20.354 31.2262 21.2169M34 19.7857V18M36.7738 21.2169L38.5 20M31.2262 21.2169L29.5 20" stroke="#383838" stroke-width="1.5"></path>
                <path d="M26 18.5H18V26.5H26V18.5Z" stroke="#383838" stroke-width="1.5" stroke-linejoin="round"></path>
                <path d="M26 30.5H18V38.5H26V30.5Z" stroke="#383838" stroke-width="1.5" stroke-linejoin="round"></path>
                <path d="M38 30.5H30V38.5H38V30.5Z" stroke="#383838" stroke-width="1.5" stroke-linejoin="round"></path>
              </svg>